<svg width="440" height="201" viewBox="0 0 440 201" fill="none" xmlns="http://www.w3.org/2000/svg">
<g filter="url(#filter0_i_139_1244)">
<rect y="9.70346" width="439.428" height="180.207" rx="10" fill="url(#paint0_linear_139_1244)"/>
<rect y="9.70346" width="439.428" height="180.207" rx="10" fill="url(#paint1_linear_139_1244)" fill-opacity="0.1"/>
</g>
<path d="M155.255 9.70344C155.255 10.9777 155.506 12.2395 155.994 13.4168C156.481 14.5941 157.196 15.6638 158.097 16.5648C158.998 17.4659 160.068 18.1806 161.245 18.6683C162.423 19.1559 163.684 19.4069 164.959 19.4069C166.233 19.4069 167.495 19.1559 168.672 18.6683C169.849 18.1806 170.919 17.4659 171.82 16.5648C172.721 15.6638 173.436 14.5941 173.923 13.4168C174.411 12.2395 174.662 10.9777 174.662 9.70344L164.959 9.70344L155.255 9.70344Z" fill="white"/>
<path d="M174.662 191.297C174.662 190.022 174.411 188.76 173.923 187.583C173.436 186.406 172.721 185.336 171.82 184.435C170.919 183.534 169.849 182.819 168.672 182.332C167.495 181.844 166.233 181.593 164.959 181.593C163.684 181.593 162.423 181.844 161.245 182.332C160.068 182.819 158.998 183.534 158.097 184.435C157.196 185.336 156.481 186.406 155.994 187.583C155.506 188.76 155.255 190.022 155.255 191.297L164.959 191.297L174.662 191.297Z" fill="white"/>
<line x1="165.459" y1="19.9069" x2="165.459" y2="178.321" stroke="white" stroke-linecap="round" stroke-dasharray="7 7"/>
<defs>
<filter id="filter0_i_139_1244" x="0" y="9.70346" width="439.428" height="181.207" filterUnits="userSpaceOnUse" color-interpolation-filters="sRGB">
<feFlood flood-opacity="0" result="BackgroundImageFix"/>
<feBlend mode="normal" in="SourceGraphic" in2="BackgroundImageFix" result="shape"/>
<feColorMatrix in="SourceAlpha" type="matrix" values="0 0 0 0 0 0 0 0 0 0 0 0 0 0 0 0 0 0 127 0" result="hardAlpha"/>
<feOffset dy="1"/>
<feGaussianBlur stdDeviation="2"/>
<feComposite in2="hardAlpha" operator="arithmetic" k2="-1" k3="1"/>
<feColorMatrix type="matrix" values="0 0 0 0 0 0 0 0 0 0 0 0 0 0 0 0 0 0 0.1 0"/>
<feBlend mode="normal" in2="shape" result="effect1_innerShadow_139_1244"/>
</filter>
<linearGradient id="paint0_linear_139_1244" x1="27.7241" y1="2.77245" x2="420.021" y2="189.91" gradientUnits="userSpaceOnUse">
<stop stop-color="#1C7852"/>
<stop offset="1" stop-color="#6EE4B4" stop-opacity="0.77"/>
</linearGradient>
<linearGradient id="paint1_linear_139_1244" x1="51.2896" y1="24.9517" x2="219.714" y2="189.91" gradientUnits="userSpaceOnUse">
<stop stop-color="#6FCF97" stop-opacity="0.2"/>
<stop offset="0.336805" stop-color="#2B8761"/>
</linearGradient>
</defs>
</svg>
